<svg width="50" height="50" viewBox="0 0 50 50" fill="none" xmlns="http://www.w3.org/2000/svg">
<rect width="50" height="50" rx="12" fill="#81FFBE"/>
<path d="M38.3333 13.5467L38.1733 11.8667L36.5733 12.4C33.8312 13.3527 30.903 13.6451 28.0266 13.2533C25.0042 12.7843 21.9105 13.2011 19.12 14.4533C17.6406 15.0833 16.3423 16.0732 15.3433 17.3331C14.3442 18.5929 13.6762 20.0827 13.4 21.6667C13.0418 23.7129 13.221 25.8171 13.92 27.7733C14.3701 26.7575 14.896 25.7769 15.4933 24.84C16.8482 22.8465 18.7257 21.2642 20.92 20.2667C23.0339 19.3015 25.3445 18.8449 27.6666 18.9333C25.456 19.2713 23.34 20.066 21.4533 21.2667C20.5433 21.8385 19.7099 22.524 18.9733 23.3067C18.2689 24.089 17.6477 24.9425 17.12 25.8533C16.1287 27.7573 15.4233 29.797 15.0266 31.9067C14.5991 34.0231 14.367 36.1744 14.3333 38.3333H17C17.1253 36.3971 17.3882 34.4723 17.7866 32.5733C19.6366 33.5723 21.7111 34.0817 23.8133 34.0533C25.7739 34.052 27.7144 33.6575 29.52 32.8933C39.6666 28.56 38.3333 14.1467 38.3333 13.5467Z" fill="#135E37"/>
</svg>
